<svg width="97" height="26" viewBox="0 0 97 26" fill="none" xmlns="http://www.w3.org/2000/svg">
<g clip-path="url(#clip0_8154_1544)">
<path d="M39.883 0.464758C39.976 0.464758 40.0424 0.464758 40.1088 0.464758C43.8866 0.464758 47.6578 0.458119 51.4356 0.464758C52.7901 0.464758 54.1379 0.624104 55.4326 1.06895C57.0127 1.62002 58.2145 2.59601 58.8851 4.16292C59.31 5.14556 59.4029 6.19458 59.3897 7.25025C59.3764 8.3192 59.2038 9.36159 58.7589 10.3376C57.9755 12.0572 56.6144 13.0863 54.8284 13.6042C54.6624 13.6507 54.4898 13.6905 54.3238 13.737C54.3238 13.737 54.3171 13.7436 54.2972 13.7702C54.4167 13.8698 54.5429 13.976 54.6624 14.0756C55.6649 14.8922 56.3554 15.9213 56.8136 17.1297C57.8493 19.8718 58.8983 22.6072 59.9407 25.3427C59.9673 25.4024 59.9806 25.4688 60.0071 25.5552C59.4494 25.5552 58.905 25.5552 58.3672 25.5552C58.1282 25.5552 57.9666 25.4423 57.8825 25.2165C57.0327 22.9591 56.1961 20.6885 55.3263 18.4377C54.9412 17.4351 54.4632 16.4791 53.7262 15.669C52.8565 14.7196 51.7942 14.215 50.4928 14.2217C47.6644 14.2217 44.836 14.2217 42.0076 14.2217C41.804 14.2217 41.7022 14.3212 41.7022 14.5204C41.7022 18.0924 41.7022 21.6644 41.7022 25.2365C41.7022 25.3294 41.7022 25.4224 41.7022 25.5286H39.9029V0.464758H39.883ZM41.6823 7.33657C41.6823 8.94995 41.6823 10.5633 41.6823 12.1833C41.6823 12.3161 41.6823 12.4091 41.8682 12.4091C45.002 12.3958 48.1425 12.4025 51.2763 12.3825C52.2722 12.3825 53.2548 12.2564 54.2109 11.9709C55.3396 11.6389 56.2891 11.048 56.8667 9.97906C57.2783 9.22216 57.4244 8.39223 57.4576 7.54239C57.4908 6.65934 57.4377 5.78958 57.0924 4.95965C56.6343 3.85751 55.7645 3.22676 54.6823 2.83503C53.4872 2.40347 52.239 2.29724 50.9841 2.2906C47.9698 2.27732 44.9489 2.2906 41.9346 2.28396C41.7354 2.28396 41.6757 2.33708 41.6757 2.5429C41.6823 4.143 41.6757 5.7431 41.6757 7.34984L41.6823 7.33657Z" fill="white"/>
<path d="M23.663 12.8207C23.663 15.1844 23.2779 17.3488 22.3218 19.3938C21.2263 21.7375 19.5731 23.5567 17.256 24.7518C16.0077 25.3958 14.6732 25.7809 13.2723 25.927C11.5195 26.1062 9.79324 25.9934 8.10682 25.4489C5.18547 24.4995 3.02766 22.6471 1.59354 19.9316C0.723778 18.2717 0.245739 16.4923 0.0797532 14.62C-0.0995114 12.5618 8.00689e-05 10.5301 0.571071 8.53166C1.13542 6.55312 2.07822 4.78703 3.53889 3.31307C5.11244 1.72625 7.01132 0.723698 9.20233 0.265577C10.0655 0.0796731 10.9352 0 11.8116 0C14.9654 0.0199183 17.7672 0.975996 20.0379 3.22676C21.5716 4.74719 22.5409 6.59959 23.1252 8.67109C23.5169 10.0654 23.6696 11.4928 23.663 12.8207ZM21.7575 12.927C21.7376 12.4622 21.7243 11.9908 21.6911 11.526C21.5981 10.1915 21.3259 8.89019 20.808 7.64862C19.6793 4.94637 17.7738 3.08069 14.9322 2.24413C13.3055 1.76609 11.6523 1.70633 9.97914 1.97855C8.02715 2.30388 6.32082 3.11389 4.91326 4.52145C3.49906 5.94229 2.68241 7.67518 2.25085 9.60725C1.87904 11.2737 1.8392 12.9668 2.00519 14.6599C2.13798 16.094 2.48323 17.4683 3.09405 18.7697C4.15636 21.0536 5.8295 22.6936 8.21969 23.5633C9.74012 24.1144 11.3203 24.2605 12.927 24.1144C14.1885 24.0015 15.3903 23.6762 16.5123 23.0919C18.4245 22.1027 19.7723 20.5756 20.6487 18.6236C21.4653 16.8044 21.7641 14.8922 21.7641 12.9137L21.7575 12.927Z" fill="white"/>
<path d="M96.3646 25.5485C95.7804 25.5485 95.2227 25.5485 94.6583 25.5485C94.3396 25.5485 94.1227 25.4002 94.0076 25.1037C93.0648 22.6205 92.1154 20.144 91.1726 17.6609C91.1195 17.5148 91.0531 17.4683 90.9004 17.4683C86.9167 17.4683 82.9331 17.4683 78.9561 17.4683C78.8033 17.4683 78.737 17.5082 78.6838 17.6542C77.761 20.2104 76.8314 22.76 75.9086 25.3095C75.8422 25.502 75.7559 25.5618 75.5567 25.5552C75.0056 25.5419 74.4612 25.5552 73.8769 25.5552C73.9964 25.2431 74.1093 24.9443 74.2221 24.6456C77.1501 17.0368 80.0848 9.42799 83.0194 1.82584C83.1721 1.43412 83.3248 1.04239 83.4709 0.644024C83.524 0.497957 83.5904 0.438202 83.7564 0.438202C84.4801 0.451481 85.2038 0.451481 85.9275 0.438202C86.0868 0.438202 86.1598 0.491317 86.2196 0.637385C87.5342 3.86415 88.8488 7.09091 90.1634 10.3177C92.2084 15.3304 94.2533 20.3366 96.2982 25.3493C96.3248 25.4091 96.3447 25.4755 96.3713 25.5552L96.3646 25.5485ZM84.7589 2.07814C82.9065 6.76558 81.074 11.3866 79.2349 16.0276H90.5751C88.6363 11.38 86.7043 6.75894 84.7523 2.07814H84.7589Z" fill="white"/>
</g>
<defs>
<clipPath id="clip0_8154_1544">
<rect width="96.3647" height="26" fill="white"/>
</clipPath>
</defs>
</svg>
