<svg width="97" height="26" viewBox="0 0 97 26" fill="none" xmlns="http://www.w3.org/2000/svg">
<g clip-path="url(#clip0_8154_5661)">
<path d="M39.8828 0.464758C39.9758 0.464758 40.0422 0.464758 40.1086 0.464758C43.8864 0.464758 47.6576 0.458119 51.4354 0.464758C52.7899 0.464758 54.1377 0.624104 55.4324 1.06895C57.0125 1.62002 58.2143 2.59601 58.8849 4.16292C59.3098 5.14556 59.4027 6.19458 59.3894 7.25025C59.3762 8.3192 59.2035 9.36159 58.7587 10.3376C57.9753 12.0572 56.6142 13.0863 54.8282 13.6042C54.6622 13.6507 54.4896 13.6905 54.3236 13.737C54.3236 13.737 54.3169 13.7436 54.297 13.7702C54.4165 13.8698 54.5427 13.976 54.6622 14.0756C55.6647 14.8922 56.3552 15.9213 56.8134 17.1297C57.8491 19.8718 58.8981 22.6072 59.9405 25.3427C59.9671 25.4024 59.9804 25.4688 60.0069 25.5552C59.4492 25.5552 58.9048 25.5552 58.367 25.5552C58.128 25.5552 57.9664 25.4423 57.8823 25.2165C57.0325 22.9591 56.1959 20.6885 55.3261 18.4377C54.941 17.4351 54.463 16.4791 53.726 15.669C52.8563 14.7196 51.7939 14.215 50.4926 14.2217C47.6642 14.2217 44.8358 14.2217 42.0074 14.2217C41.8038 14.2217 41.702 14.3212 41.702 14.5204C41.702 18.0924 41.702 21.6644 41.702 25.2365C41.702 25.3294 41.702 25.4224 41.702 25.5286H39.9027V0.464758H39.8828ZM41.6821 7.33657C41.6821 8.94995 41.6821 10.5633 41.6821 12.1833C41.6821 12.3161 41.6821 12.4091 41.868 12.4091C45.0018 12.3958 48.1423 12.4025 51.2761 12.3825C52.272 12.3825 53.2546 12.2564 54.2107 11.9709C55.3394 11.6389 56.2888 11.048 56.8665 9.97906C57.2781 9.22216 57.4242 8.39223 57.4574 7.54239C57.4906 6.65934 57.4375 5.78958 57.0922 4.95965C56.6341 3.85751 55.7643 3.22676 54.6821 2.83503C53.487 2.40347 52.2388 2.29724 50.9839 2.2906C47.9696 2.27732 44.9487 2.2906 41.9344 2.28396C41.7352 2.28396 41.6755 2.33708 41.6755 2.5429C41.6821 4.143 41.6755 5.7431 41.6755 7.34984L41.6821 7.33657Z" fill="#141419"/>
<path d="M23.6632 12.8207C23.6632 15.1844 23.2781 17.3488 22.322 19.3938C21.2265 21.7375 19.5733 23.5567 17.2561 24.7518C16.0079 25.3958 14.6734 25.7809 13.2725 25.927C11.5197 26.1062 9.79342 25.9934 8.107 25.4489C5.18566 24.4995 3.02784 22.6471 1.59373 19.9316C0.723961 18.2717 0.245922 16.4923 0.0799363 14.62C-0.0993283 12.5618 0.000263174 10.5301 0.571254 8.53166C1.13561 6.55312 2.0784 4.78703 3.53908 3.31307C5.11262 1.72625 7.0115 0.723698 9.20251 0.265577C10.0656 0.0796731 10.9354 0 11.8118 0C14.9655 0.0199183 17.7674 0.975996 20.0381 3.22676C21.5718 4.74719 22.5411 6.59959 23.1254 8.67109C23.5171 10.0654 23.6698 11.4928 23.6632 12.8207ZM21.7577 12.927C21.7377 12.4622 21.7245 11.9908 21.6913 11.526C21.5983 10.1915 21.3261 8.89019 20.8082 7.64862C19.6795 4.94637 17.774 3.08069 14.9323 2.24413C13.3057 1.76609 11.6525 1.70633 9.97932 1.97855C8.02733 2.30388 6.321 3.11389 4.91344 4.52145C3.49924 5.94229 2.68259 7.67518 2.25103 9.60725C1.87922 11.2737 1.83938 12.9668 2.00537 14.6599C2.13816 16.094 2.48341 17.4683 3.09424 18.7697C4.15654 21.0536 5.82968 22.6936 8.21987 23.5633C9.7403 24.1144 11.3205 24.2605 12.9272 24.1144C14.1887 24.0015 15.3905 23.6762 16.5125 23.0919C18.4247 22.1027 19.7725 20.5756 20.6489 18.6236C21.4655 16.8044 21.7643 14.8922 21.7643 12.9137L21.7577 12.927Z" fill="#141419"/>
<path d="M96.3647 25.5485C95.7804 25.5485 95.2227 25.5485 94.6584 25.5485C94.3397 25.5485 94.1228 25.4002 94.0077 25.1037C93.0649 22.6205 92.1155 20.144 91.1727 17.6609C91.1196 17.5148 91.0532 17.4683 90.9004 17.4683C86.9168 17.4683 82.9331 17.4683 78.9561 17.4683C78.8034 17.4683 78.737 17.5082 78.6839 17.6542C77.761 20.2104 76.8315 22.76 75.9086 25.3095C75.8422 25.502 75.7559 25.5618 75.5567 25.5552C75.0057 25.5419 74.4612 25.5552 73.877 25.5552C73.9965 25.2431 74.1093 24.9443 74.2222 24.6456C77.1502 17.0368 80.0848 9.42799 83.0194 1.82584C83.1722 1.43412 83.3249 1.04239 83.4709 0.644024C83.524 0.497957 83.5904 0.438202 83.7564 0.438202C84.4801 0.451481 85.2038 0.451481 85.9275 0.438202C86.0869 0.438202 86.1599 0.491317 86.2197 0.637385C87.5343 3.86415 88.8489 7.09091 90.1635 10.3177C92.2084 15.3304 94.2534 20.3366 96.2983 25.3493C96.3249 25.4091 96.3448 25.4755 96.3713 25.5552L96.3647 25.5485ZM84.759 2.07814C82.9066 6.76558 81.0741 11.3866 79.235 16.0276H90.5751C88.6364 11.38 86.7043 6.75894 84.7523 2.07814H84.759Z" fill="#141419"/>
</g>
<defs>
<clipPath id="clip0_8154_5661">
<rect width="96.3647" height="26" fill="white"/>
</clipPath>
</defs>
</svg>
