<svg width="97" height="26" viewBox="0 0 97 26" fill="none" xmlns="http://www.w3.org/2000/svg">
<g clip-path="url(#clip0_2098_7770)">
<path d="M39.8831 0.464743C39.976 0.464743 40.0424 0.464743 40.1088 0.464743C43.8866 0.464743 47.6578 0.458103 51.4357 0.464743C52.7901 0.464743 54.1379 0.624089 55.4326 1.06893C57.0128 1.62 58.2145 2.596 58.8851 4.1629C59.31 5.14554 59.403 6.19457 59.3897 7.25024C59.3764 8.31919 59.2038 9.36158 58.7589 10.3376C57.9755 12.0572 56.6144 13.0863 54.8284 13.6042C54.6624 13.6506 54.4898 13.6905 54.3238 13.737C54.3238 13.737 54.3172 13.7436 54.2973 13.7702C54.4168 13.8697 54.5429 13.976 54.6624 14.0756C55.665 14.8922 56.3555 15.9213 56.8136 17.1297C57.8493 19.8718 58.8984 22.6072 59.9408 25.3427C59.9673 25.4024 59.9806 25.4688 60.0072 25.5551C59.4494 25.5551 58.905 25.5551 58.3672 25.5551C58.1282 25.5551 57.9666 25.4423 57.8825 25.2165C57.0327 22.9591 56.1961 20.6884 55.3264 18.4377C54.9413 17.4351 54.4632 16.479 53.7263 15.669C52.8565 14.7196 51.7942 14.215 50.4929 14.2216C47.6645 14.2216 44.8361 14.2216 42.0077 14.2216C41.8041 14.2216 41.7023 14.3212 41.7023 14.5204C41.7023 18.0924 41.7023 21.6644 41.7023 25.2364C41.7023 25.3294 41.7023 25.4224 41.7023 25.5286H39.903V0.464743H39.8831ZM41.6823 7.33655C41.6823 8.94993 41.6823 10.5633 41.6823 12.1833C41.6823 12.3161 41.6823 12.4091 41.8682 12.4091C45.0021 12.3958 48.1425 12.4024 51.2763 12.3825C52.2722 12.3825 53.2549 12.2564 54.2109 11.9709C55.3396 11.6389 56.2891 11.048 56.8667 9.97904C57.2784 9.22215 57.4244 8.39222 57.4576 7.54237C57.4908 6.65933 57.4377 5.78956 57.0925 4.95964C56.6343 3.85749 55.7646 3.22674 54.6823 2.83502C53.4872 2.40346 52.239 2.29723 50.9842 2.29059C47.9699 2.27731 44.9489 2.29059 41.9346 2.28395C41.7355 2.28395 41.6757 2.33706 41.6757 2.54288C41.6823 4.14299 41.6757 5.74309 41.6757 7.34983L41.6823 7.33655Z" fill="white"/>
<path d="M23.6629 12.8207C23.6629 15.1844 23.2778 17.3488 22.3218 19.3938C21.2263 21.7375 19.5731 23.5567 17.2559 24.7518C16.0077 25.3958 14.6732 25.7809 13.2722 25.927C11.5194 26.1062 9.79317 25.9934 8.10676 25.4489C5.18541 24.4995 3.0276 22.6471 1.59348 19.9316C0.723717 18.2717 0.245678 16.4923 0.0796921 14.62C-0.0995724 12.5618 1.90338e-05 10.5301 0.57101 8.53166C1.13536 6.55312 2.07816 4.78703 3.53883 3.31307C5.11238 1.72625 7.01125 0.723698 9.20227 0.265577C10.0654 0.0796731 10.9352 0 11.8116 0C14.9653 0.0199183 17.7671 0.975996 20.0378 3.22676C21.5715 4.74719 22.5409 6.59959 23.1251 8.67109C23.5169 10.0654 23.6696 11.4928 23.6629 12.8207ZM21.7574 12.927C21.7375 12.4622 21.7242 11.9908 21.691 11.526C21.5981 10.1915 21.3259 8.89019 20.808 7.64862C19.6793 4.94637 17.7738 3.08069 14.9321 2.24413C13.3054 1.76609 11.6522 1.70633 9.97908 1.97855C8.02709 2.30388 6.32075 3.11389 4.9132 4.52145C3.499 5.94229 2.68235 7.67518 2.25079 9.60725C1.87898 11.2737 1.83914 12.9668 2.00513 14.6599C2.13791 16.094 2.48316 17.4683 3.09399 18.7697C4.1563 21.0536 5.82944 22.6936 8.21963 23.5633C9.74006 24.1144 11.3202 24.2605 12.927 24.1144C14.1885 24.0015 15.3902 23.6762 16.5123 23.0919C18.4244 22.1027 19.7722 20.5756 20.6486 18.6236C21.4653 16.8044 21.7641 14.8922 21.7641 12.9137L21.7574 12.927Z" fill="white"/>
<path d="M96.3647 25.5485C95.7804 25.5485 95.2227 25.5485 94.6584 25.5485C94.3397 25.5485 94.1228 25.4003 94.0077 25.1037C93.0649 22.6206 92.1155 20.1441 91.1727 17.6609C91.1196 17.5148 91.0532 17.4684 90.9004 17.4684C86.9168 17.4684 82.9331 17.4684 78.9561 17.4684C78.8034 17.4684 78.737 17.5082 78.6839 17.6543C77.761 20.2104 76.8315 22.76 75.9086 25.3095C75.8422 25.5021 75.7559 25.5618 75.5567 25.5552C75.0057 25.5419 74.4612 25.5552 73.877 25.5552C73.9965 25.2431 74.1093 24.9444 74.2222 24.6456C77.1502 17.0368 80.0848 9.42802 83.0194 1.82587C83.1722 1.43415 83.3249 1.04242 83.4709 0.644055C83.524 0.497987 83.5904 0.438232 83.7564 0.438232C84.4801 0.451511 85.2038 0.451511 85.9275 0.438232C86.0869 0.438232 86.1599 0.491348 86.2197 0.637415C87.5343 3.86418 88.8489 7.09094 90.1635 10.3177C92.2084 15.3305 94.2534 20.3366 96.2983 25.3494C96.3249 25.4091 96.3448 25.4755 96.3713 25.5552L96.3647 25.5485ZM84.759 2.07817C82.9066 6.76561 81.0741 11.3866 79.235 16.0276H90.5751C88.6364 11.38 86.7043 6.75897 84.7523 2.07817H84.759Z" fill="white"/>
</g>
<defs>
<clipPath id="clip0_2098_7770">
<rect width="96.3647" height="26" fill="white"/>
</clipPath>
</defs>
</svg>
