<svg width="56" height="56" viewBox="0 0 56 56" fill="none" xmlns="http://www.w3.org/2000/svg">
<path d="M24.1731 35.2644C23.5352 35.2644 23.0064 34.7354 23.0064 34.0977V28.8244L22.7108 29.1667C22.2752 29.6487 21.5441 29.68 21.0619 29.26C20.5797 28.8244 20.5486 28.0933 20.9686 27.611L23.3019 25.0133C23.6285 24.6554 24.1418 24.531 24.5931 24.7021C25.0441 24.8733 25.3398 25.3087 25.3398 25.791V34.1133C25.3398 34.751 24.8264 35.2644 24.1731 35.2644Z"/>
<path fill-rule="evenodd" clip-rule="evenodd" d="M29.3526 12.5421C29.8363 11.9388 29.7393 11.0577 29.1361 10.5741C28.5327 10.0904 27.6516 10.1875 27.1682 10.7907L24.112 14.6032C23.8135 14.8909 23.6497 15.3049 23.6882 15.7353C23.7169 16.1081 23.8938 16.4686 24.2086 16.7209C24.6155 17.0471 25.1489 17.1091 25.6016 16.9297C26.4763 16.7373 27.3609 16.6268 28.2592 16.6268C35.3621 16.6268 41.1199 22.3844 41.1199 29.4874C41.1199 36.5903 35.3621 42.3478 28.2592 42.3478C21.1562 42.3478 15.3986 36.5903 15.3986 29.4874C15.3986 26.6086 16.3906 23.9635 18.0061 21.8095C18.47 21.191 18.3446 20.3135 17.7261 19.8495C17.1075 19.3856 16.23 19.511 15.7661 20.1295C13.8204 22.7238 12.5986 25.9496 12.5986 29.4874C12.5986 38.1369 19.6098 45.1478 28.2592 45.1478C36.9087 45.1478 43.9199 38.1369 43.9199 29.4874C43.9199 20.8592 36.943 13.8612 28.3227 13.8269L29.3526 12.5421Z"/>
<path d="M31.1097 35.2643C28.7454 35.2643 26.832 33.3509 26.832 30.9866V28.8866C26.832 26.522 28.7454 24.6086 31.1097 24.6086C33.4743 24.6086 35.3877 26.522 35.3877 28.8866V30.9866C35.3877 33.3509 33.4743 35.2643 31.1097 35.2643ZM31.1097 26.9576C30.0364 26.9576 29.1654 27.8286 29.1654 28.902V31.002C29.1654 32.0753 30.0364 32.9466 31.1097 32.9466C32.1831 32.9466 33.0543 32.0753 33.0543 31.002V28.902C33.0543 27.8286 32.1831 26.9576 31.1097 26.9576Z"/>
</svg>
