<svg width="56" height="56" viewBox="0 0 56 56" fill="none" xmlns="http://www.w3.org/2000/svg">
<path fill-rule="evenodd" clip-rule="evenodd" d="M27.1681 12.5421C26.6844 11.9388 26.7815 11.0577 27.3849 10.5741C27.988 10.0904 28.8691 10.1875 29.3528 10.7907L32.409 14.6032C32.7072 14.8909 32.8712 15.3049 32.8325 15.7353C32.804 16.1081 32.6269 16.4686 32.3122 16.7209C31.9052 17.0471 31.3718 17.1091 30.9194 16.9297C30.0446 16.7373 29.1601 16.6268 28.2617 16.6268C21.1587 16.6268 15.4011 22.3844 15.4011 29.4874C15.4011 36.5903 21.1587 42.3478 28.2617 42.3478C35.3646 42.3478 41.1221 36.5903 41.1221 29.4874C41.1221 26.6086 40.1302 23.9635 38.5149 21.8095C38.0508 21.191 38.1763 20.3135 38.7949 19.8495C39.4134 19.3856 40.2908 19.511 40.7549 20.1295C42.7004 22.7238 43.9221 25.9496 43.9221 29.4874C43.9221 38.1369 36.9109 45.1478 28.2617 45.1478C19.6123 45.1478 12.6011 38.1369 12.6011 29.4874C12.6011 20.8592 19.5779 13.8612 28.198 13.8269L27.1681 12.5421Z"/>
<path d="M24.1746 35.2644C23.5367 35.2644 23.0078 34.7354 23.0078 34.0977V28.8244L22.7123 29.1667C22.2767 29.6487 21.5456 29.68 21.0634 29.26C20.5811 28.8244 20.55 28.0933 20.97 27.611L23.3034 25.0133C23.63 24.6554 24.1433 24.531 24.5946 24.7021C25.0456 24.8733 25.3413 25.3087 25.3413 25.791V34.1133C25.3413 34.751 24.8279 35.2644 24.1746 35.2644Z"/>
<path d="M31.1112 35.2643C28.7468 35.2643 26.8335 33.3509 26.8335 30.9866V28.8866C26.8335 26.522 28.7468 24.6086 31.1112 24.6086C33.4758 24.6086 35.3891 26.522 35.3891 28.8866V30.9866C35.3891 33.3509 33.4758 35.2643 31.1112 35.2643ZM31.1112 26.9576C30.0379 26.9576 29.1668 27.8286 29.1668 28.902V31.002C29.1668 32.0753 30.0379 32.9466 31.1112 32.9466C32.1845 32.9466 33.0558 32.0753 33.0558 31.002V28.902C33.0558 27.8286 32.1845 26.9576 31.1112 26.9576Z"/>
</svg>
