<svg width="56" height="56" viewBox="0 0 56 56" fill="none" xmlns="http://www.w3.org/2000/svg">
<path d="M12.6857 41.9994C12.1225 41.9994 11.666 41.5575 11.666 41.0122V34.2539C11.666 33.7089 12.1225 33.2669 12.6857 33.2669C13.2488 33.2669 13.7053 33.7089 13.7053 34.2539V40.0252H19.666C20.2291 40.0252 20.6856 40.4671 20.6856 41.0122C20.6856 41.5575 20.2291 41.9994 19.666 41.9994H12.6857ZM36.3328 41.9994C35.7696 41.9994 35.3132 41.5575 35.3132 41.0122C35.3132 40.4671 35.7696 40.0252 36.3328 40.0252H42.2933V34.2539C42.2933 33.7089 42.75 33.2669 43.313 33.2669C43.8763 33.2669 44.3327 33.7089 44.3327 34.2539V41.0122C44.3327 41.5575 43.8763 41.9994 43.313 41.9994H36.3328ZM12.6857 25.0653C12.1225 25.0653 11.666 24.6233 11.666 24.0783V17.32C11.666 16.7747 12.1225 16.3328 12.6857 16.3328H19.666C20.2291 16.3328 20.6856 16.7747 20.6856 17.32C20.6856 17.8652 20.2291 18.3071 19.666 18.3071H13.7053V24.0783C13.7053 24.6233 13.2488 25.0653 12.6857 25.0653ZM43.3142 25.0653C42.7516 25.0653 42.2954 24.6238 42.2954 24.0792V18.3071H36.3328C35.7696 18.3071 35.3132 17.8652 35.3132 17.32C35.3132 16.7747 35.7696 16.3328 36.3328 16.3328H43.313C43.8763 16.3328 44.3327 16.7747 44.3327 17.32V24.0792C44.3327 24.6238 43.8767 25.0653 43.3142 25.0653Z"/>
<path fill-rule="evenodd" clip-rule="evenodd" d="M11.1997 41.0123V34.254C11.1997 33.4371 11.8795 32.8004 12.686 32.8004C13.4925 32.8004 14.1723 33.4371 14.1723 34.254V39.5586H19.6663C20.4729 39.5586 21.1526 40.1954 21.1526 41.0123C21.1526 41.8294 20.4729 42.4662 19.6663 42.4662H12.686C11.8795 42.4662 11.1997 41.8294 11.1997 41.0123ZM19.6663 40.0253C20.2295 40.0253 20.686 40.4672 20.686 41.0123C20.686 41.5576 20.2295 41.9995 19.6663 41.9995H12.686C12.1229 41.9995 11.6664 41.5576 11.6664 41.0123V34.254C11.6664 33.709 12.1229 33.267 12.686 33.267C13.2491 33.267 13.7056 33.709 13.7056 34.254V40.0253H19.6663ZM42.2937 34.254C42.2937 33.709 42.7503 33.267 43.3134 33.267C43.8766 33.267 44.333 33.709 44.333 34.254V41.0123C44.333 41.5576 43.8766 41.9995 43.3134 41.9995H36.3332C35.7699 41.9995 35.3135 41.5576 35.3135 41.0123C35.3135 40.4672 35.7699 40.0253 36.3332 40.0253H42.2937V34.254ZM41.827 39.5586H36.3332C35.5266 39.5586 34.8469 40.1954 34.8469 41.0123C34.8469 41.8294 35.5266 42.4662 36.3332 42.4662H43.3134C44.12 42.4662 44.7997 41.8294 44.7997 41.0123V34.254C44.7997 33.4371 44.12 32.8004 43.3134 32.8004C42.507 32.8004 41.827 33.4371 41.827 34.254V39.5586ZM11.1997 24.0784V17.3201C11.1997 16.503 11.8795 15.8662 12.686 15.8662H19.6663C20.4729 15.8662 21.1526 16.503 21.1526 17.3201C21.1526 18.1371 20.4729 18.7739 19.6663 18.7739H14.1723V24.0784C14.1723 24.8953 13.4925 25.532 12.686 25.532C11.8795 25.532 11.1997 24.8953 11.1997 24.0784ZM13.7056 24.0784C13.7056 24.6234 13.2491 25.0654 12.686 25.0654C12.1229 25.0654 11.6664 24.6234 11.6664 24.0784V17.3201C11.6664 16.7749 12.1229 16.3329 12.686 16.3329H19.6663C20.2295 16.3329 20.686 16.7749 20.686 17.3201C20.686 17.8653 20.2295 18.3073 19.6663 18.3073H13.7056V24.0784ZM36.3332 18.3073C35.7699 18.3073 35.3135 17.8653 35.3135 17.3201C35.3135 16.7749 35.7699 16.3329 36.3332 16.3329H43.3134C43.8766 16.3329 44.333 16.7749 44.333 17.3201V24.0793C44.333 24.6239 43.8771 25.0654 43.3145 25.0654C42.752 25.0654 42.2958 24.6239 42.2958 24.0793V18.3073H36.3332ZM41.8291 24.0793V18.7739H36.3332C35.5266 18.7739 34.8469 18.1371 34.8469 17.3201C34.8469 16.503 35.5266 15.8662 36.3332 15.8662H43.3134C44.12 15.8662 44.7997 16.503 44.7997 17.3201V24.0793C44.7997 24.8957 44.1205 25.532 43.3145 25.532C42.5086 25.532 41.8291 24.8957 41.8291 24.0793Z"/>
</svg>
