<svg width="56" height="56" viewBox="0 0 56 56" fill="none" xmlns="http://www.w3.org/2000/svg">
<path fill-rule="evenodd" clip-rule="evenodd" d="M36.8956 17.1257C37.4418 16.5782 38.3282 16.5771 38.8756 17.1231C44.9087 23.1409 44.9071 32.9067 38.8768 38.9368C38.3301 39.4835 37.4437 39.4835 36.897 38.9368C36.3503 38.3901 36.3503 37.5036 36.897 36.9569C41.835 32.0189 41.8331 24.0279 36.8981 19.1056C36.3507 18.5595 36.3496 17.6731 36.8956 17.1257Z"/>
<path fill-rule="evenodd" clip-rule="evenodd" d="M19.0445 17.1244C19.5912 17.6711 19.5912 18.5576 19.0445 19.1043C14.1065 24.0424 14.1083 32.0334 19.0432 36.9555C19.5907 37.5018 19.5918 38.3882 19.0458 38.9356C18.4997 39.483 17.6133 39.4842 17.0659 38.9382C11.0327 32.9203 11.0345 23.1545 17.0646 17.1244C17.6113 16.5777 18.4978 16.5777 19.0445 17.1244Z"/>
<path fill-rule="evenodd" clip-rule="evenodd" d="M22.0192 40.7718C22.2718 40.041 23.0691 39.6534 23.7999 39.9061C25.1472 40.3721 26.5469 40.6 27.9644 40.6007C29.3994 40.5872 30.802 40.3693 32.1418 39.9061C32.8724 39.6534 33.6697 40.041 33.9224 40.7718C34.1751 41.5023 33.7875 42.2996 33.0567 42.5523C31.397 43.1263 29.6881 43.3853 27.9833 43.4007H27.9707C26.2487 43.4007 24.537 43.1235 22.8848 42.5523C22.154 42.2996 21.7665 41.5023 22.0192 40.7718Z"/>
<path fill-rule="evenodd" clip-rule="evenodd" d="M27.9707 15.4614C26.5511 15.4614 25.149 15.6894 23.7999 16.156C23.0691 16.4087 22.2718 16.0211 22.0192 15.2904C21.7665 14.5597 22.154 13.7624 22.8848 13.5097C24.537 12.9384 26.2487 12.6614 27.9707 12.6614C29.6927 12.6614 31.4047 12.9384 33.0567 13.5097C33.7875 13.7624 34.1751 14.5597 33.9224 15.2904C33.6697 16.0211 32.8724 16.4087 32.1418 16.156C30.7924 15.6894 29.3906 15.4614 27.9707 15.4614Z"/>
<path d="M33.2704 26.3788C33.5284 26.5351 33.7443 26.7687 33.8948 27.0543C34.0453 27.3399 34.1248 27.6668 34.1248 28C34.1248 28.3332 34.0453 28.6601 33.8948 28.9457C33.7443 29.2313 33.5284 29.4649 33.2704 29.6212L26.3866 33.8884C25.278 34.5763 23.9165 33.6819 23.9165 32.2677V23.7328C23.9165 22.318 25.278 21.4244 26.3866 22.111L33.2704 26.3788Z"/>
</svg>
