<svg width="56" height="56" viewBox="0 0 56 56" fill="none" xmlns="http://www.w3.org/2000/svg">
<path d="M41.0665 16.3333H14.9332C13.1365 16.3333 11.6665 17.777 11.6665 19.5416V38.7916C11.6665 40.5562 13.1365 41.9999 14.9332 41.9999H41.0665C42.8632 41.9999 44.3332 40.5562 44.3332 38.7916V19.5416C44.3332 17.777 42.8632 16.3333 41.0665 16.3333ZM16.5665 29.1666H19.8332C20.7315 29.1666 21.4665 29.8885 21.4665 30.7708C21.4665 31.653 20.7315 32.3749 19.8332 32.3749H16.5665C15.6682 32.3749 14.9332 31.653 14.9332 30.7708C14.9332 29.8885 15.6682 29.1666 16.5665 29.1666ZM29.6332 38.7916H16.5665C15.6682 38.7916 14.9332 38.0697 14.9332 37.1874C14.9332 36.3051 15.6682 35.5833 16.5665 35.5833H29.6332C30.5315 35.5833 31.2665 36.3051 31.2665 37.1874C31.2665 38.0697 30.5315 38.7916 29.6332 38.7916ZM39.4332 38.7916H36.1665C35.2682 38.7916 34.5332 38.0697 34.5332 37.1874C34.5332 36.3051 35.2682 35.5833 36.1665 35.5833H39.4332C40.3315 35.5833 41.0665 36.3051 41.0665 37.1874C41.0665 38.0697 40.3315 38.7916 39.4332 38.7916ZM39.4332 32.3749H26.3665C25.4682 32.3749 24.7332 31.653 24.7332 30.7708C24.7332 29.8885 25.4682 29.1666 26.3665 29.1666H39.4332C40.3315 29.1666 41.0665 29.8885 41.0665 30.7708C41.0665 31.653 40.3315 32.3749 39.4332 32.3749Z"/>
</svg>
