<svg width="56" height="56" viewBox="0 0 56 56" fill="none" xmlns="http://www.w3.org/2000/svg">
<g clip-path="url(#clip0_161_127)">
<path d="M10 24.6934C10.3144 23.6979 11.0192 23.347 12.0266 23.3768C13.3332 23.4157 14.6417 23.3939 15.9493 23.3773C16.1347 23.3749 16.3548 23.2976 16.4975 23.18C19.2952 20.8765 22.0835 18.5606 24.8755 16.2504C25.7031 15.5656 26.7114 15.6149 27.2876 16.4245C27.4921 16.7114 27.5964 17.1174 27.6168 17.4769C27.6642 18.3002 27.632 19.1278 27.632 19.954C27.632 26.2286 27.6324 32.5032 27.6315 38.7783C27.6315 39.7913 27.0994 40.4577 26.1992 40.5725C25.6993 40.636 25.2834 40.4439 24.9059 40.1309C22.7878 38.3733 20.6673 36.618 18.5478 34.8618C17.8591 34.2912 17.1767 33.7117 16.4766 33.1558C16.3386 33.0463 16.1318 32.9732 15.9559 32.9709C14.6716 32.9547 13.3849 32.9234 12.1024 32.9742C11.0932 33.014 10.3604 32.7053 10 31.7164C10 29.3754 10 27.0344 10 24.6934Z"/>
<path d="M45.2692 27.6468C45.1866 33.1085 43.632 37.4917 40.5075 41.3062C39.8691 42.0855 38.9239 42.2211 38.1982 41.651C37.2767 40.9268 37.1027 39.9996 37.7733 39.1365C38.6128 38.0561 39.3872 36.9387 39.9886 35.7061C40.8091 34.0243 41.3574 32.2595 41.5912 30.4023C42.1503 25.9641 41.1264 21.9152 38.562 18.2557C38.2466 17.8056 37.8895 17.385 37.5395 16.96C36.8139 16.0784 36.9191 15.1516 37.8421 14.3814C38.5729 13.7715 39.5291 13.9052 40.2092 14.6954C42.6886 17.577 44.2869 20.8822 44.9277 24.6299C45.1278 25.8014 45.1975 26.9951 45.2692 27.6468Z"/>
<path d="M37.4949 28.1333C37.4911 30.9727 36.6516 33.5082 35.0021 35.7766C34.4605 36.5217 33.5072 36.7043 32.7811 36.2129C31.8776 35.6016 31.585 34.6189 32.129 33.8074C32.8176 32.7806 33.4119 31.7173 33.7016 30.5065C34.3756 27.695 33.9042 25.0979 32.2371 22.7237C32.009 22.3988 31.7538 22.065 31.6371 21.6955C31.3934 20.921 31.8638 20.0669 32.6753 19.6628C33.3772 19.3132 34.1778 19.5177 34.6976 20.1778C36.5449 22.5203 37.4825 25.1814 37.4949 28.1333Z"/>
<path d="M40.9474 15.4736L13.6842 40.5263" stroke="white" stroke-width="1.5" stroke-linecap="round"/>
</g>
<defs>
<clipPath id="clip0_161_127">
<rect width="35.2696" height="28" transform="translate(10 14)"/>
</clipPath>
</defs>
</svg>
