<svg width="56" height="56" viewBox="0 0 56 56" fill="none" xmlns="http://www.w3.org/2000/svg">
<mask id="mask0_8064_23676" style="mask-type:luminance" maskUnits="userSpaceOnUse" x="11" y="14" width="36" height="28">
<path d="M46.6665 14H11.6665V42H46.6665V14Z"/>
</mask>
<g mask="url(#mask0_8064_23676)">
<path d="M11.6665 24.6934C11.9785 23.6978 12.6779 23.3469 13.6776 23.3767C14.9742 23.4157 16.2727 23.394 17.5703 23.3772C17.7543 23.3749 17.9727 23.2976 18.1143 23.18C20.8907 20.8765 23.6575 18.5606 26.4283 16.2504C27.2497 15.5656 28.2502 15.6149 28.8221 16.4245C29.0249 16.7114 29.1285 17.1174 29.1485 17.4769C29.1957 18.3002 29.1637 19.1278 29.1637 19.954C29.1637 26.2285 29.1642 32.5033 29.1632 38.7784C29.1632 39.7913 28.6352 40.4577 27.7418 40.5725C27.2457 40.6359 26.8329 40.4439 26.4584 40.131C24.3566 38.3733 22.2523 36.6179 20.1489 34.8619C19.4656 34.2911 18.7883 33.7118 18.0936 33.1557C17.9567 33.0463 17.7515 32.9733 17.5769 32.9709C16.3024 32.9548 15.0255 32.9233 13.7529 32.9742C12.7513 33.0141 12.0242 32.7052 11.6665 31.7163C11.6665 29.3755 11.6665 27.0345 11.6665 24.6934Z"/>
<path d="M35.7876 37.1726C35.4787 37.1726 35.189 37.0761 34.9187 36.883C34.2815 36.4002 34.1463 35.4927 34.629 34.8554C37.6607 30.8197 37.6607 25.1811 34.629 21.1454C34.1463 20.5081 34.2815 19.6006 34.9187 19.1178C35.5559 18.6351 36.4635 18.7702 36.9462 19.4075C40.731 24.4667 40.731 31.5341 36.9462 36.5933C36.6566 36.9795 36.2318 37.1726 35.7876 37.1726Z"/>
<path d="M39.3174 42C39.0085 42 38.7188 41.9035 38.4485 41.7104C37.8112 41.2276 37.6761 40.32 38.1588 39.6828C43.3146 32.8084 43.3146 23.1921 38.1588 16.3177C37.6761 15.6805 37.8112 14.7729 38.4485 14.2902C39.0857 13.8074 39.9933 13.9426 40.476 14.5798C46.4042 22.4776 46.4042 33.5229 40.476 41.4207C40.2057 41.8069 39.7616 42 39.3174 42Z"/>
</g>
</svg>
