<svg width="24" height="19" viewBox="0 0 24 19" fill="none" xmlns="http://www.w3.org/2000/svg">
<g clip-path="url(#clip0_4018_2441)">
<path d="M0 7.25612C0.213371 6.58061 0.691605 6.34245 1.37517 6.36273C2.2618 6.38912 3.14972 6.37431 4.03699 6.36305C4.16283 6.36144 4.31216 6.30898 4.40902 6.22917C6.30748 4.66606 8.1995 3.09458 10.0941 1.52696C10.6557 1.06224 11.3399 1.09571 11.7309 1.64507C11.8696 1.83978 11.9404 2.11526 11.9543 2.35921C11.9864 2.9179 11.9645 3.47948 11.9645 4.04011C11.9645 8.29787 11.9649 12.5556 11.9642 16.8137C11.9642 17.5011 11.6031 17.9533 10.9923 18.0312C10.6531 18.0743 10.3709 17.944 10.1147 17.7316C8.67741 16.5389 7.23852 15.3478 5.80028 14.1561C5.33299 13.7689 4.86988 13.3757 4.39486 12.9985C4.30121 12.9241 4.1609 12.8746 4.0415 12.873C3.16999 12.862 2.29688 12.8408 1.42666 12.8752C0.74181 12.9022 0.244588 12.6927 0 12.0217C0 10.4332 0 8.84466 0 7.25612Z" fill="white"/>
<path d="M23.9326 9.26031C23.8766 12.9665 22.8217 15.9408 20.7015 18.5292C20.2683 19.058 19.6269 19.15 19.1345 18.7632C18.5092 18.2718 18.3911 17.6426 18.8462 17.0569C19.4158 16.3238 19.9413 15.5655 20.3494 14.7291C20.9062 13.5879 21.2782 12.3904 21.4369 11.1301C21.8163 8.11847 21.1215 5.37103 19.3814 2.88782C19.1674 2.5824 18.925 2.29694 18.6875 2.00859C18.1951 1.41031 18.2666 0.781462 18.8928 0.258815C19.3888 -0.155054 20.0376 -0.0642985 20.4991 0.471865C22.1816 2.42728 23.2661 4.67009 23.7009 7.21317C23.8367 8.00808 23.884 8.81812 23.9326 9.26031Z" fill="white"/>
<path d="M18.6572 9.59028C18.6547 11.5171 18.085 13.2375 16.9657 14.7768C16.5982 15.2824 15.9513 15.4063 15.4586 15.0729C14.8455 14.6581 14.647 13.9913 15.0161 13.4406C15.4834 12.7439 15.8866 12.0223 16.0833 11.2007C16.5406 9.29292 16.2207 7.53059 15.0895 5.91953C14.9347 5.69908 14.7615 5.47251 14.6824 5.22181C14.5169 4.69627 14.8362 4.11666 15.3868 3.84246C15.8631 3.60527 16.4064 3.74398 16.7591 4.19196C18.0126 5.78147 18.6489 7.58723 18.6572 9.59028Z" fill="white"/>
</g>
<defs>
<clipPath id="clip0_4018_2441">
<rect width="23.933" height="19" fill="white"/>
</clipPath>
</defs>
</svg>
