<svg width="40" height="40" viewBox="0 0 40 40" fill="none" xmlns="http://www.w3.org/2000/svg">
<path fill-rule="evenodd" clip-rule="evenodd" d="M11.8773 27.1078C11.5969 27.3882 11.5969 27.8427 11.8773 28.1232C12.1577 28.4035 12.6123 28.4035 12.8927 28.1232L20 21.016L27.108 28.1238C27.3883 28.4043 27.8428 28.4043 28.1233 28.1238C28.4037 27.8437 28.4037 27.3888 28.1233 27.1087L21.0153 20.0007L28.1233 12.8926C28.4037 12.6123 28.4037 12.1577 28.1233 11.8773C27.8428 11.5969 27.3883 11.5969 27.108 11.8773L20 18.9853L12.8927 11.8781C12.6123 11.5977 12.1577 11.5977 11.8773 11.8781C11.5969 12.1585 11.5969 12.6131 11.8773 12.8935L18.9845 20.0007L11.8773 27.1078Z"/>
<mask id="mask0_8428_1945" style="mask-type:luminance" maskUnits="userSpaceOnUse" x="10" y="10" width="20" height="20">
<path d="M30 10H10V30H30V10Z" />
<path fill-rule="evenodd" clip-rule="evenodd" d="M11.8773 27.1078C11.5969 27.3882 11.5969 27.8427 11.8773 28.1232C12.1577 28.4035 12.6123 28.4035 12.8927 28.1232L20 21.016L27.108 28.1238C27.3883 28.4043 27.8428 28.4043 28.1233 28.1238C28.4037 27.8437 28.4037 27.3888 28.1233 27.1087L21.0153 20.0007L28.1233 12.8926C28.4037 12.6123 28.4037 12.1577 28.1233 11.8773C27.8428 11.5969 27.3883 11.5969 27.108 11.8773L20 18.9853L12.8927 11.8781C12.6123 11.5977 12.1577 11.5977 11.8773 11.8781C11.5969 12.1585 11.5969 12.6131 11.8773 12.8935L18.9845 20.0007L11.8773 27.1078Z" />
</mask>
<g mask="url(#mask0_8428_1945)">
<path d="M19.9993 21.0153L20.235 20.7795L19.9993 20.5438L19.7635 20.7795L19.9993 21.0153ZM21.0147 20L20.7788 19.7642L20.5432 20L20.7788 20.2357L21.0147 20ZM19.9993 18.9847L19.7635 19.2203L19.9993 19.456L20.235 19.2203L19.9993 18.9847ZM18.9838 20L19.2197 20.2357L19.4553 20L19.2197 19.7642L18.9838 20ZM12.1123 27.8868C11.9621 27.7365 11.9622 27.493 12.1123 27.3428L11.641 26.8713C11.2303 27.282 11.2304 27.9475 11.6409 28.3582L12.1123 27.8868ZM12.6563 27.8867C12.5061 28.0368 12.2626 28.037 12.1123 27.8868L11.6409 28.3582C12.0515 28.7687 12.7172 28.7687 13.1277 28.3582L12.6563 27.8867ZM19.7635 20.7795L12.6563 27.8867L13.1277 28.3582L20.235 21.251L19.7635 20.7795ZM27.3432 27.8877L20.235 20.7795L19.7635 21.251L26.8717 28.359L27.3432 27.8877ZM27.887 27.8875C27.7367 28.0378 27.4932 28.0377 27.3432 27.8877L26.8717 28.359C27.2822 28.7697 27.9478 28.7695 28.3583 28.359L27.887 27.8875ZM27.887 27.3437C28.0372 27.4938 28.0372 27.7373 27.887 27.8875L28.3583 28.359C28.769 27.9485 28.769 27.2827 28.3583 26.8722L27.887 27.3437ZM20.7788 20.2357L27.887 27.3437L28.3583 26.8722L21.2503 19.7642L20.7788 20.2357ZM27.887 12.6563L20.7788 19.7642L21.2503 20.2357L28.3583 13.1277L27.887 12.6563ZM27.887 12.1123C28.0372 12.2626 28.0372 12.5061 27.887 12.6563L28.3583 13.1277C28.769 12.7171 28.769 12.0515 28.3583 11.6409L27.887 12.1123ZM27.343 12.1123C27.4932 11.9622 27.7367 11.9621 27.887 12.1123L28.3583 11.6409C27.9478 11.2304 27.2822 11.2303 26.8717 11.641L27.343 12.1123ZM20.235 19.2203L27.343 12.1123L26.8717 11.641L19.7635 18.7488L20.235 19.2203ZM12.6563 12.1131L19.7635 19.2203L20.235 18.7488L13.1277 11.6417L12.6563 12.1131ZM12.1123 12.1131C12.2625 11.9629 12.5061 11.9629 12.6563 12.1131L13.1277 11.6417C12.7171 11.2312 12.0515 11.2312 11.6409 11.6417L12.1123 12.1131ZM12.1123 12.6571C11.9621 12.5069 11.9621 12.2634 12.1123 12.1131L11.6409 11.6417C11.2304 12.0523 11.2304 12.718 11.6409 13.1285L12.1123 12.6571ZM19.2197 19.7642L12.1123 12.6571L11.6409 13.1285L18.7482 20.2357L19.2197 19.7642ZM12.1123 27.3428L19.2197 20.2357L18.7482 19.7642L11.641 26.8713L12.1123 27.3428Z"/>
</g>
</svg>
