<svg width="16" height="16" viewBox="0 0 16 16" fill="none" xmlns="http://www.w3.org/2000/svg">
<path d="M14.1806 6.12003C13.9873 5.81337 13.7806 5.5267 13.5673 5.26003C13.3206 4.9467 12.854 4.92003 12.5739 5.20003L10.5739 7.20003C10.7206 7.64003 10.7473 8.1467 10.6139 8.67337C10.3806 9.61337 9.62062 10.3734 8.68062 10.6067C8.15395 10.74 7.64728 10.7134 7.20728 10.5667C7.20728 10.5667 6.25395 11.52 5.56728 12.2067C5.23395 12.54 5.34062 13.1267 5.78728 13.3C6.50062 13.5734 7.24062 13.7134 8.00062 13.7134C9.18728 13.7134 10.3406 13.3667 11.3939 12.72C12.4673 12.0534 13.4339 11.0734 14.2139 9.8267C14.8473 8.82003 14.8139 7.1267 14.1806 6.12003Z"/>
<path d="M9.34611 6.65326L6.65277 9.3466C6.31277 8.99993 6.09277 8.51993 6.09277 7.99993C6.09277 6.95326 6.94611 6.09326 7.99944 6.09326C8.51944 6.09326 8.99944 6.31326 9.34611 6.65326Z"/>
<path d="M12.1663 3.83329L9.90634 6.09329C9.41967 5.59995 8.74634 5.30662 7.99967 5.30662C6.50634 5.30662 5.30634 6.51329 5.30634 7.99995C5.30634 8.74662 5.60634 9.41995 6.09301 9.90662L3.83967 12.1666H3.83301C3.09301 11.5666 2.41301 10.8 1.83301 9.89329C1.16634 8.84662 1.16634 7.14662 1.83301 6.09995C2.60634 4.88662 3.55301 3.93329 4.60634 3.27995C5.65967 2.63995 6.81301 2.28662 7.99967 2.28662C9.48634 2.28662 10.9263 2.83329 12.1663 3.83329Z"/>
<path d="M9.90672 8.00005C9.90672 9.04672 9.05339 9.90672 8.00005 9.90672C7.96005 9.90672 7.92672 9.90672 7.88672 9.89339L9.89339 7.88672C9.90672 7.92672 9.90672 7.96005 9.90672 8.00005Z"/>
<path d="M14.5136 1.48643C14.3136 1.28643 13.9869 1.28643 13.7869 1.48643L1.48691 13.7931C1.28691 13.9931 1.28691 14.3198 1.48691 14.5198C1.58691 14.6131 1.71358 14.6664 1.84691 14.6664C1.98025 14.6664 2.10691 14.6131 2.20691 14.5131L14.5136 2.20643C14.7202 2.00643 14.7202 1.68643 14.5136 1.48643Z"/>
</svg>
