<svg width="24" height="24" viewBox="0 0 24 24" fill="none" xmlns="http://www.w3.org/2000/svg">
<path fill-rule="evenodd" clip-rule="evenodd" d="M12 5.45455C8.38505 5.45455 5.45455 8.38505 5.45455 12C5.45455 15.615 8.38505 18.5455 12 18.5455C15.615 18.5455 18.5455 15.615 18.5455 12C18.5455 8.38505 15.615 5.45455 12 5.45455ZM4 12C4 7.58172 7.58172 4 12 4C16.4183 4 20 7.58172 20 12C20 16.4183 16.4183 20 12 20C7.58172 20 4 16.4183 4 12Z"/>
<path fill-rule="evenodd" clip-rule="evenodd" d="M12 11C12.5523 11 13 11.3731 13 11.8333V15.1667C13 15.6269 12.5523 16 12 16C11.4477 16 11 15.6269 11 15.1667V11.8333C11 11.3731 11.4477 11 12 11Z"/>
<path fill-rule="evenodd" clip-rule="evenodd" d="M11 9C11 8.44772 11.4455 8 11.995 8H12.005C12.5545 8 13 8.44772 13 9C13 9.55228 12.5545 10 12.005 10H11.995C11.4455 10 11 9.55228 11 9Z"/>
</svg>
