<svg width="16" height="17" viewBox="0 0 16 17" fill="none" xmlns="http://www.w3.org/2000/svg">
<g opacity="0.75" clip-path="url(#clip0_6001_18720)">
<path d="M7.49959 14.1634C7.49959 14.0308 7.55227 13.9036 7.64604 13.8098C7.7398 13.7161 7.86698 13.6634 7.99959 13.6634C9.25719 13.6634 10.4768 13.2325 11.4552 12.4423C12.4336 11.6522 13.1117 10.5507 13.3764 9.32124C13.6412 8.09183 13.4766 6.80881 12.9101 5.68601C12.3437 4.56322 11.4095 3.66846 10.2634 3.15085C9.11725 2.63325 7.82834 2.52406 6.61146 2.84148C5.39458 3.15891 4.32323 3.88377 3.57596 4.89527C2.82869 5.90678 2.45063 7.14383 2.50479 8.40026C2.55894 9.65669 3.04205 10.8566 3.87359 11.8001V10.0421C3.87359 9.90946 3.92627 9.78228 4.02004 9.68851C4.1138 9.59475 4.24098 9.54207 4.37359 9.54207C4.5062 9.54207 4.63337 9.59475 4.72714 9.68851C4.82091 9.78228 4.87359 9.90946 4.87359 10.0421V12.8707C4.87359 12.9365 4.86063 13.0015 4.83546 13.0622C4.8103 13.1229 4.77341 13.1781 4.72691 13.2245C4.68041 13.271 4.62521 13.3078 4.56447 13.3329C4.50373 13.358 4.43864 13.3708 4.37292 13.3707H1.54492C1.41231 13.3707 1.28514 13.3181 1.19137 13.2243C1.0976 13.1305 1.04492 13.0033 1.04492 12.8707C1.04492 12.7381 1.0976 12.6109 1.19137 12.5172C1.28514 12.4234 1.41231 12.3707 1.54492 12.3707H3.04492C2.0864 11.2417 1.54222 9.81909 1.50246 8.33856C1.4627 6.85802 1.92975 5.4083 2.82629 4.22941C3.72283 3.05052 4.99509 2.21315 6.43244 1.85595C7.86979 1.49874 9.38603 1.64312 10.7301 2.26517C12.0742 2.88722 13.1656 3.94965 13.8235 5.27656C14.4815 6.60346 14.6665 8.11528 14.3481 9.5617C14.0296 11.0081 13.2267 12.3024 12.0724 13.2303C10.918 14.1582 9.48133 14.664 8.00026 14.6641C7.93448 14.6642 7.86934 14.6513 7.80855 14.6261C7.74777 14.601 7.69254 14.5641 7.64604 14.5176C7.59953 14.4711 7.56265 14.4159 7.53752 14.3551C7.51239 14.2943 7.4995 14.2292 7.49959 14.1634ZM9.41626 10.9541L7.64492 9.18407C7.55121 9.09006 7.49849 8.9628 7.49826 8.83007V5.3634C7.49826 5.23079 7.55093 5.10362 7.6447 5.00985C7.73847 4.91608 7.86565 4.8634 7.99826 4.8634C8.13086 4.8634 8.25804 4.91608 8.35181 5.00985C8.44558 5.10362 8.49826 5.23079 8.49826 5.3634V8.62273L10.1223 10.2467C10.17 10.2929 10.2081 10.3481 10.2342 10.4091C10.2604 10.4701 10.2742 10.5357 10.2747 10.6021C10.2753 10.6685 10.2626 10.7343 10.2374 10.7958C10.2122 10.8572 10.1751 10.913 10.1281 10.9599C10.0811 11.0069 10.0253 11.044 9.96384 11.0691C9.90238 11.0942 9.83654 11.1068 9.77015 11.1062C9.70376 11.1056 9.63816 11.0918 9.57717 11.0655C9.51618 11.0393 9.46102 11.0012 9.41492 10.9534L9.41626 10.9541Z" fill="white"/>
</g>
<defs>
<clipPath id="clip0_6001_18720">
<rect width="16" height="16" fill="white" transform="translate(0 0.164062)"/>
</clipPath>
</defs>
</svg>
