<svg width="25" height="24" viewBox="0 0 25 24" fill="none" xmlns="http://www.w3.org/2000/svg">
<path fill-rule="evenodd" clip-rule="evenodd" d="M6.01423 11.223C6.01423 8.1454 8.50894 5.65059 11.5862 5.65059C14.6635 5.65059 17.1582 8.1454 17.1582 11.223C17.1582 12.7273 16.5622 14.0924 15.5934 15.095C15.5681 15.1138 15.5438 15.1347 15.5208 15.1577C15.4978 15.1807 15.4769 15.205 15.4581 15.2303C14.4556 16.1993 13.0905 16.7954 11.5862 16.7954C8.50894 16.7954 6.01423 14.3006 6.01423 11.223ZM15.9643 16.5204C14.7754 17.5042 13.2499 18.0954 11.5862 18.0954C7.7909 18.0954 4.71423 15.0185 4.71423 11.223C4.71423 7.42751 7.7909 4.35059 11.5862 4.35059C15.3816 4.35059 18.4582 7.42751 18.4582 11.223C18.4582 12.8866 17.8671 14.4122 16.8835 15.6012L19.8233 18.5411C20.0771 18.795 20.0771 19.2065 19.8232 19.4604C19.5694 19.7142 19.1578 19.7142 18.904 19.4603L15.9643 16.5204Z"/>
</svg>
