<svg width="24" height="24" viewBox="0 0 24 24" fill="none" xmlns="http://www.w3.org/2000/svg">
<path d="M6.25995 19.089C5.27661 18.1893 4.49087 17.0951 3.9525 15.8757C3.41414 14.6564 3.13489 13.3386 3.13244 12.0057C3.13 10.6729 3.40442 9.35402 3.9383 8.13275C4.47219 6.91147 5.25391 5.8144 6.23395 4.91102C6.70895 4.47502 5.99995 3.76902 5.52695 4.20002C4.43828 5.18774 3.56879 6.39272 2.97457 7.73721C2.38034 9.08171 2.07459 10.5358 2.07704 12.0058C2.07949 13.4757 2.39009 14.9289 2.98879 16.2714C3.58749 17.6139 4.461 18.8159 5.55295 19.8C6.02795 20.233 6.73695 19.527 6.25995 19.093V19.089Z" fill="white"/>
<path d="M8.84004 15.706C8.32489 15.2363 7.91313 14.6645 7.63097 14.027C7.34881 13.3895 7.20242 12.7003 7.2011 12.0031C7.19978 11.306 7.34357 10.6162 7.62333 9.97762C7.90308 9.33906 8.31266 8.76571 8.82604 8.29404C9.30004 7.85704 8.59204 7.15104 8.11904 7.58704C7.51394 8.15229 7.03175 8.8361 6.7025 9.59586C6.37326 10.3556 6.20402 11.1751 6.20533 12.0031C6.20664 12.8311 6.37848 13.65 6.71013 14.4087C7.04179 15.1674 7.52615 15.8497 8.13304 16.413C8.60704 16.847 9.31604 16.141 8.84004 15.706Z" fill="white"/>
<path d="M12 13.244C12.687 13.244 13.244 12.687 13.244 12C13.244 11.3129 12.687 10.756 12 10.756C11.3129 10.756 10.756 11.3129 10.756 12C10.756 12.687 11.3129 13.244 12 13.244Z" fill="white"/>
<path d="M17.74 4.911C18.7234 5.81077 19.5091 6.90497 20.0475 8.12428C20.5858 9.34358 20.8651 10.6614 20.8675 11.9943C20.87 13.3272 20.5955 14.646 20.0617 15.8673C19.5278 17.0885 18.746 18.1856 17.766 19.089C17.291 19.525 18 20.231 18.473 19.796C19.561 18.8083 20.43 17.6036 21.0238 16.2594C21.6176 14.9153 21.9232 13.4617 21.9207 11.9922C21.9183 10.5228 21.6079 9.07015 21.0096 7.72802C20.4113 6.38589 19.5383 5.18405 18.447 4.2C17.972 3.767 17.263 4.473 17.74 4.907V4.911Z" fill="white"/>
<path d="M15.16 8.29399C15.6752 8.76371 16.0869 9.33551 16.3691 9.97301C16.6512 10.6105 16.7976 11.2998 16.7989 11.9969C16.8003 12.6941 16.6565 13.3838 16.3767 14.0224C16.097 14.661 15.6874 15.2343 15.174 15.706C14.7 16.143 15.408 16.849 15.881 16.413C16.4861 15.8477 16.9683 15.1639 17.2975 14.4042C17.6268 13.6444 17.796 12.825 17.7947 11.9969C17.7934 11.1689 17.6216 10.35 17.2899 9.5913C16.9583 8.83259 16.4739 8.15031 15.867 7.58699C15.393 7.15299 14.684 7.85899 15.16 8.29399Z" fill="white"/>
</svg>
