<svg width="24" height="24" viewBox="0 0 24 24" fill="none" xmlns="http://www.w3.org/2000/svg">
<path d="M8.06449 19.9999H5.6258C5.19461 19.9999 4.78108 19.8313 4.47618 19.5313C4.17129 19.2312 4 18.8243 4 18.3999V12.7999C4 12.3756 4.17129 11.9686 4.47618 11.6686C4.78108 11.3685 5.19461 11.2 5.6258 11.2H8.06449M13.7548 9.59996V6.39998C13.7548 5.76347 13.4979 5.15302 13.0405 4.70294C12.5832 4.25285 11.9629 4 11.3161 4L8.06449 11.2V19.9999H17.234C17.6261 20.0043 18.0066 19.869 18.3053 19.6191C18.6041 19.3692 18.801 19.0214 18.8598 18.6399L19.9816 11.44C20.017 11.2106 20.0012 10.9765 19.9355 10.7538C19.8698 10.531 19.7557 10.325 19.601 10.15C19.4464 9.97495 19.2549 9.83511 19.0399 9.74014C18.8249 9.64517 18.5915 9.59734 18.3558 9.59996H13.7548Z" stroke="white" stroke-width="2" stroke-linecap="round" stroke-linejoin="round"/>
</svg>
