<svg width="24" height="24" viewBox="0 0 24 24" fill="none" xmlns="http://www.w3.org/2000/svg">
<path d="M15.9355 4.00029H18.1059C18.566 3.99228 19.0131 4.15079 19.3622 4.44574C19.7114 4.74068 19.9383 5.15152 20 5.60026V11.2002C19.9383 11.6489 19.7114 12.0597 19.3622 12.3547C19.0131 12.6496 18.566 12.8081 18.1059 12.8001H15.9355M10.2452 14.4001V17.6C10.2452 18.2366 10.5021 18.847 10.9595 19.2971C11.4168 19.7471 12.0371 20 12.6839 20L15.9355 12.8001V4.00029H6.76601C6.37392 3.99593 5.99345 4.13116 5.69468 4.38108C5.39592 4.63099 5.199 4.97875 5.14021 5.36026L4.01841 12.5601C3.98304 12.7894 3.99876 13.0236 4.06447 13.2463C4.13018 13.4691 4.24431 13.6751 4.39896 13.8501C4.55361 14.0251 4.74508 14.165 4.9601 14.2599C5.17511 14.3549 5.40854 14.4027 5.64421 14.4001H10.2452Z" stroke="white" stroke-width="2" stroke-linecap="round" stroke-linejoin="round"/>
</svg>
