<svg width="20" height="20" viewBox="0 0 20 20" fill="none" xmlns="http://www.w3.org/2000/svg">
<path d="M15.8333 12.8309C15.8333 12.0027 15.1516 11.3313 14.3106 11.3313H6.52272C5.68174 11.3313 5 12.0027 5 12.8309V13.4442C5 13.8257 5.1208 14.1976 5.34557 14.5083C6.38977 15.9515 8.09809 16.6663 10.4145 16.6663C12.7303 16.6663 14.4395 15.9518 15.4862 14.5094C15.712 14.1983 15.8333 13.8256 15.8333 13.4432V12.8309ZM13.8 6.66694C13.8 4.82566 12.2842 3.33301 10.4145 3.33301C8.54466 3.33301 7.02891 4.82566 7.02891 6.66694C7.02891 8.50822 8.54466 10.0009 10.4145 10.0009C12.2842 10.0009 13.8 8.50822 13.8 6.66694Z" fill="white"/>
</svg>
