<svg width="52" height="52" viewBox="0 0 52 52" fill="none" xmlns="http://www.w3.org/2000/svg">
<mask id="path-1-inside-1_4004_1649">
<path d="M36.3715 24.0871C38.015 25.0897 37.9974 27.4821 36.3393 28.4603L13.8457 41.7311C12.1459 42.734 10 41.5085 10 39.5348L10 12.5426C10 10.5521 12.1787 9.32906 13.878 10.3656L36.3715 24.0871Z"/>
</mask>
<path d="M36.3393 28.4603L34.3068 25.0152L36.3393 28.4603ZM36.3715 24.0871L34.2884 27.5019L36.3715 24.0871ZM34.3068 25.0152L11.8132 38.286L15.8783 45.1762L38.3719 31.9054L34.3068 25.0152ZM14 39.5348L14 12.5426L6 12.5426L6 39.5348H14ZM11.7949 13.7804L34.2884 27.5019L38.4546 20.6724L15.9611 6.95085L11.7949 13.7804ZM14 12.5426C14 13.6744 12.7611 14.3698 11.7949 13.7804L15.9611 6.95085C11.5963 4.28827 6 7.4298 6 12.5426L14 12.5426ZM11.8132 38.286C12.7798 37.7157 14 38.4125 14 39.5348H6C6 44.6045 11.5119 47.7523 15.8783 45.1762L11.8132 38.286ZM38.3719 31.9054C42.6308 29.3927 42.6761 23.2475 38.4546 20.6724L34.2884 27.5019C33.3539 26.9318 33.3639 25.5715 34.3068 25.0152L38.3719 31.9054Z" mask="url(#path-1-inside-1_4004_1649)"/>
<line x1="44" y1="10" x2="44" y2="42" stroke="white" stroke-width="4"/>
</svg>
