<svg width="24" height="24" viewBox="0 0 24 24" fill="none" xmlns="http://www.w3.org/2000/svg">
<path d="M20.3917 0.465884C20.7549 0.2669 21.2108 0.400095 21.4097 0.763384C22.4242 2.61555 23.0007 4.74154 23.0007 6.99994C23.0007 9.25834 22.4242 11.3843 21.4097 13.2365C21.2108 13.5997 20.7549 13.7329 20.3917 13.534C20.0284 13.335 19.8952 12.8792 20.0942 12.5159C20.9907 10.879 21.5007 9.0002 21.5007 6.99994C21.5007 4.99969 20.9907 3.1208 20.0942 1.48397C19.8952 1.12068 20.0284 0.664867 20.3917 0.465884ZM17.2903 3.06089C17.6709 2.89759 18.1119 3.07379 18.2752 3.45446C18.7424 4.54343 19.0007 5.74248 19.0007 6.99992C19.0007 8.25735 18.7424 9.4564 18.2752 10.5453C18.1119 10.926 17.6709 11.1022 17.2903 10.9389C16.9096 10.7756 16.7334 10.3346 16.8967 9.954C17.2852 9.04844 17.5007 8.05031 17.5007 6.99992C17.5007 5.94952 17.2852 4.95139 16.8967 4.04583C16.7334 3.66516 16.9096 3.22419 17.2903 3.06089ZM18.0034 16.2487C18.0034 15.0067 16.9966 13.9998 15.7545 13.9998H4.25278C3.01076 13.9998 2.00391 15.0067 2.00391 16.2487V17.1686C2.00391 17.7407 2.18231 18.2985 2.51427 18.7644C4.05643 20.9288 6.5794 22.0009 10.0004 22.0009C13.4206 22.0009 15.9449 20.9293 17.4908 18.766C17.8242 18.2995 18.0034 17.7405 18.0034 17.1671V16.2487ZM15.0004 7.00454C15.0004 4.24311 12.7618 2.00454 10.0004 2.00454C7.23894 2.00454 5.00036 4.24311 5.00036 7.00454C5.00036 9.76596 7.23894 12.0045 10.0004 12.0045C12.7618 12.0045 15.0004 9.76596 15.0004 7.00454Z"/>
</svg>
