<svg width="41" height="41" viewBox="0 0 41 41" fill="none" xmlns="http://www.w3.org/2000/svg">
<mask id="mask0_8064_34121" style="mask-type:luminance" maskUnits="userSpaceOnUse" x="8" y="10" width="26" height="21">
<path d="M33.6348 10.3973H8.63477V30.3973H33.6348V10.3973Z" fill="white"/>
</mask>
<g mask="url(#mask0_8064_34121)">
<path d="M8.63477 18.0354C8.85765 17.3243 9.3572 17.0736 10.0712 17.0949C10.9974 17.1228 11.9249 17.1073 12.8517 17.0953C12.9832 17.0936 13.1392 17.0384 13.2404 16.9544C15.2235 15.309 17.1998 13.6549 19.1789 12.0047C19.7656 11.5156 20.4803 11.5508 20.8888 12.1291C21.0336 12.334 21.1076 12.624 21.1219 12.8808C21.1556 13.4689 21.1328 14.06 21.1328 14.6501C21.1328 19.1319 21.1331 23.6139 21.1324 28.0961C21.1324 28.8196 20.7553 29.2956 20.1171 29.3776C19.7628 29.4229 19.4679 29.2858 19.2004 29.0623C17.6991 27.8068 16.196 26.5529 14.6936 25.2986C14.2055 24.8909 13.7218 24.4771 13.2256 24.0799C13.1277 24.0018 12.9812 23.9496 12.8564 23.9479C11.9461 23.9364 11.034 23.9139 10.125 23.9503C9.40965 23.9788 8.89027 23.7581 8.63477 23.0518C8.63477 21.3798 8.63477 19.7076 8.63477 18.0354Z" fill="white"/>
<path fill-rule="evenodd" clip-rule="evenodd" d="M25.386 23.2406C25.2738 23.3528 25.2738 23.5346 25.386 23.6468C25.4981 23.7589 25.68 23.7589 25.7921 23.6468L28.635 20.8039L31.4781 23.6471C31.5903 23.7593 31.7721 23.7593 31.8843 23.6471C31.9965 23.5349 31.9965 23.3529 31.8843 23.2409L29.0411 20.3978L31.8846 17.5543C31.9968 17.4421 31.9968 17.2603 31.8846 17.1481C31.7725 17.0359 31.5906 17.0359 31.4785 17.1481L28.635 19.9916L25.7918 17.1484C25.6796 17.0362 25.4978 17.0362 25.3856 17.1484C25.2735 17.2606 25.2735 17.4424 25.3856 17.5546L28.2288 20.3978L25.386 23.2406Z" fill="white"/>
<mask id="mask1_8064_34121" style="mask-type:luminance" maskUnits="userSpaceOnUse" x="23" y="15" width="11" height="11">
<path d="M33.6348 15.3973H23.6348V25.3973H33.6348V15.3973Z" fill="white"/>
<path fill-rule="evenodd" clip-rule="evenodd" d="M25.386 23.2406C25.2738 23.3528 25.2738 23.5346 25.386 23.6468C25.4981 23.7589 25.68 23.7589 25.7921 23.6468L28.635 20.8039L31.4781 23.6471C31.5903 23.7593 31.7721 23.7593 31.8843 23.6471C31.9965 23.5349 31.9965 23.3529 31.8843 23.2409L29.0411 20.3978L31.8846 17.5543C31.9968 17.4421 31.9968 17.2603 31.8846 17.1481C31.7725 17.0359 31.5906 17.0359 31.4785 17.1481L28.635 19.9916L25.7918 17.1484C25.6796 17.0362 25.4978 17.0362 25.3856 17.1484C25.2735 17.2606 25.2735 17.4424 25.3856 17.5546L28.2288 20.3978L25.386 23.2406Z" fill="black"/>
</mask>
<g mask="url(#mask1_8064_34121)">
<path d="M28.6353 20.8043L28.9888 20.4506L28.6353 20.0971L28.2818 20.4506L28.6353 20.8043ZM29.0414 20.3981L28.6879 20.0445L28.3343 20.3981L28.6879 20.7516L29.0414 20.3981ZM28.6353 19.992L28.2818 20.3455L28.6353 20.699L28.9888 20.3455L28.6353 19.992ZM28.2291 20.3981L28.5826 20.7516L28.9363 20.3981L28.5826 20.0445L28.2291 20.3981ZM25.7398 23.2935C25.8228 23.3766 25.8229 23.5113 25.7398 23.5944L25.0328 22.8873C24.7253 23.1948 24.7253 23.6933 25.0326 24.0006L25.7398 23.2935ZM25.4388 23.2935C25.5219 23.2105 25.6568 23.2105 25.7398 23.2935L25.0326 24.0006C25.3401 24.3081 25.8386 24.3081 26.1459 24.0006L25.4388 23.2935ZM28.2818 20.4506L25.4388 23.2935L26.1459 24.0006L28.9888 21.1578L28.2818 20.4506ZM31.8321 23.2939L28.9888 20.4506L28.2818 21.1578L31.1249 24.0009L31.8321 23.2939ZM31.5311 23.2938C31.6141 23.2108 31.7489 23.2106 31.8321 23.2939L31.1249 24.0009C31.4324 24.3084 31.9308 24.3083 32.2381 24.0009L31.5311 23.2938ZM31.5311 23.5948C31.4479 23.5118 31.4479 23.3769 31.5311 23.2938L32.2381 24.0009C32.5456 23.6936 32.5456 23.1949 32.2381 22.8876L31.5311 23.5948ZM28.6879 20.7516L31.5311 23.5948L32.2381 22.8876L29.3949 20.0445L28.6879 20.7516ZM31.5314 17.201L28.6879 20.0445L29.3949 20.7516L32.2384 17.9081L31.5314 17.201ZM31.5314 17.502C31.4483 17.419 31.4483 17.2841 31.5314 17.201L32.2384 17.9081C32.5459 17.6008 32.5459 17.1023 32.2384 16.7948L31.5314 17.502ZM31.8324 17.502C31.7493 17.5851 31.6144 17.585 31.5314 17.502L32.2384 16.7948C31.9311 16.4875 31.4326 16.4874 31.1253 16.7949L31.8324 17.502ZM28.9888 20.3455L31.8324 17.502L31.1253 16.7949L28.2818 19.6383L28.9888 20.3455ZM25.4384 17.5023L28.2818 20.3455L28.9888 19.6383L26.1456 16.7952L25.4384 17.5023ZM25.7394 17.5023C25.6563 17.5855 25.5216 17.5855 25.4384 17.5023L26.1456 16.7952C25.8381 16.4877 25.3398 16.4877 25.0323 16.7952L25.7394 17.5023ZM25.7394 17.2013C25.8226 17.2845 25.8226 17.4191 25.7394 17.5023L25.0323 16.7952C24.7249 17.1026 24.7249 17.601 25.0323 17.9085L25.7394 17.2013ZM28.5826 20.0445L25.7394 17.2013L25.0323 17.9085L27.8756 20.7516L28.5826 20.0445ZM25.7398 23.5944L28.5826 20.7516L27.8756 20.0445L25.0328 22.8873L25.7398 23.5944Z" fill="white"/>
</g>
</g>
</svg>
